{
  "asset": {
    "generator": "Khronos glTF Blender I/O v5.0.21",
    "version": "2.0"
  },
  "scene": 0,
  "scenes": [
    {
      "name": "Scene",
      "nodes": [0]
    }
  ],
  "nodes": [
    {
      "mesh": 0,
      "name": "Object_16",
      "rotation": [0.7071070671081543, 0, 0, 0.7071065306663513],
      "scale": [0.974576473236084, 0.9745767116546631, 0.9745767116546631],
      "translation": [
        0.08640164136886597, 0.002749204635620117, 0.0033044167794287205
      ]
    }
  ],
  "materials": [
    {
      "doubleSided": true,
      "name": "Vehicle_Exterior_mm_tyre",
      "pbrMetallicRoughness": {
        "baseColorTexture": {
          "index": 0
        },
        "metallicFactor": 0,
        "roughnessFactor": 0.5
      }
    },
    {
      "doubleSided": true,
      "name": "Vehicle_Exterior_mm_rotor",
      "pbrMetallicRoughness": {
        "baseColorTexture": {
          "index": 1
        },
        "metallicFactor": 0,
        "roughnessFactor": 0.5
      }
    },
    {
      "doubleSided": true,
      "name": "Vehicle_Exterior_mm_misc",
      "pbrMetallicRoughness": {
        "baseColorTexture": {
          "index": 2
        },
        "metallicFactor": 0,
        "roughnessFactor": 0.5
      }
    },
    {
      "doubleSided": true,
      "name": "Vehicle_Exterior_mm_wheel",
      "pbrMetallicRoughness": {
        "baseColorTexture": {
          "index": 3
        },
        "metallicFactor": 0,
        "roughnessFactor": 0.5
      }
    }
  ],
  "meshes": [
    {
      "name": "Object_10",
      "primitives": [
        {
          "attributes": {
            "POSITION": 0,
            "NORMAL": 1,
            "TEXCOORD_0": 2
          },
          "indices": 3,
          "material": 0
        },
        {
          "attributes": {
            "POSITION": 4,
            "NORMAL": 5,
            "TEXCOORD_0": 6
          },
          "indices": 7,
          "material": 1
        },
        {
          "attributes": {
            "POSITION": 8,
            "NORMAL": 9,
            "TEXCOORD_0": 10
          },
          "indices": 11,
          "material": 2
        },
        {
          "attributes": {
            "POSITION": 12,
            "NORMAL": 13,
            "TEXCOORD_0": 14
          },
          "indices": 15,
          "material": 3
        }
      ]
    }
  ],
  "textures": [
    {
      "sampler": 0,
      "source": 0
    },
    {
      "sampler": 0,
      "source": 1
    },
    {
      "sampler": 0,
      "source": 2
    },
    {
      "sampler": 0,
      "source": 3
    }
  ],
  "images": [
    {
      "mimeType": "image/png",
      "name": "Vehicle_Exterior_mm_tyre_baseColor",
      "uri": "Vehicle_Exterior_mm_tyre_baseColor.png"
    },
    {
      "mimeType": "image/png",
      "name": "Vehicle_Exterior_mm_rotor_baseColor",
      "uri": "Vehicle_Exterior_mm_rotor_baseColor.png"
    },
    {
      "mimeType": "image/png",
      "name": "Vehicle_Exterior_mm_misc_baseColor",
      "uri": "Vehicle_Exterior_mm_misc_baseColor.png"
    },
    {
      "mimeType": "image/png",
      "name": "Vehicle_Exterior_mm_wheel_baseColor",
      "uri": "Vehicle_Exterior_mm_wheel_baseColor.png"
    }
  ],
  "accessors": [
    {
      "bufferView": 0,
      "componentType": 5126,
      "count": 315,
      "max": [-9.999999747378752e-5, 0.29919999837875366, 0.2976999878883362],
      "min": [-0.19280000030994415, -0.29919999837875366, -0.2976999878883362],
      "type": "VEC3"
    },
    {
      "bufferView": 1,
      "componentType": 5126,
      "count": 315,
      "type": "VEC3"
    },
    {
      "bufferView": 2,
      "componentType": 5126,
      "count": 315,
      "type": "VEC2"
    },
    {
      "bufferView": 3,
      "componentType": 5123,
      "count": 1035,
      "type": "SCALAR"
    },
    {
      "bufferView": 4,
      "componentType": 5126,
      "count": 108,
      "max": [-0.030468322336673737, 0.14660000801086426, 0.14479997754096985],
      "min": [-0.0699683278799057, -0.14660000801086426, -0.14400005340576172],
      "type": "VEC3"
    },
    {
      "bufferView": 5,
      "componentType": 5126,
      "count": 108,
      "type": "VEC3"
    },
    {
      "bufferView": 6,
      "componentType": 5126,
      "count": 108,
      "type": "VEC2"
    },
    {
      "bufferView": 7,
      "componentType": 5123,
      "count": 210,
      "type": "SCALAR"
    },
    {
      "bufferView": 8,
      "componentType": 5126,
      "count": 72,
      "max": [-0.03276832401752472, -0.07330000400543213, 0.0899999588727951],
      "min": [-0.07036832720041275, -0.1511000096797943, -0.11650006473064423],
      "type": "VEC3"
    },
    {
      "bufferView": 9,
      "componentType": 5126,
      "count": 72,
      "type": "VEC3"
    },
    {
      "bufferView": 10,
      "componentType": 5126,
      "count": 72,
      "type": "VEC2"
    },
    {
      "bufferView": 11,
      "componentType": 5123,
      "count": 153,
      "type": "SCALAR"
    },
    {
      "bufferView": 12,
      "componentType": 5126,
      "count": 1031,
      "max": [0.017631681635975838, 0.21250003576278687, 0.21279998123645782],
      "min": [-0.18216834962368011, -0.21250003576278687, -0.21230007708072662],
      "type": "VEC3"
    },
    {
      "bufferView": 13,
      "componentType": 5126,
      "count": 1031,
      "type": "VEC3"
    },
    {
      "bufferView": 14,
      "componentType": 5126,
      "count": 1031,
      "type": "VEC2"
    },
    {
      "bufferView": 15,
      "componentType": 5123,
      "count": 4335,
      "type": "SCALAR"
    }
  ],
  "bufferViews": [
    {
      "buffer": 0,
      "byteLength": 3780,
      "byteOffset": 0,
      "target": 34962
    },
    {
      "buffer": 0,
      "byteLength": 3780,
      "byteOffset": 3780,
      "target": 34962
    },
    {
      "buffer": 0,
      "byteLength": 2520,
      "byteOffset": 7560,
      "target": 34962
    },
    {
      "buffer": 0,
      "byteLength": 2070,
      "byteOffset": 10080,
      "target": 34963
    },
    {
      "buffer": 0,
      "byteLength": 1296,
      "byteOffset": 12152,
      "target": 34962
    },
    {
      "buffer": 0,
      "byteLength": 1296,
      "byteOffset": 13448,
      "target": 34962
    },
    {
      "buffer": 0,
      "byteLength": 864,
      "byteOffset": 14744,
      "target": 34962
    },
    {
      "buffer": 0,
      "byteLength": 420,
      "byteOffset": 15608,
      "target": 34963
    },
    {
      "buffer": 0,
      "byteLength": 864,
      "byteOffset": 16028,
      "target": 34962
    },
    {
      "buffer": 0,
      "byteLength": 864,
      "byteOffset": 16892,
      "target": 34962
    },
    {
      "buffer": 0,
      "byteLength": 576,
      "byteOffset": 17756,
      "target": 34962
    },
    {
      "buffer": 0,
      "byteLength": 306,
      "byteOffset": 18332,
      "target": 34963
    },
    {
      "buffer": 0,
      "byteLength": 12372,
      "byteOffset": 18640,
      "target": 34962
    },
    {
      "buffer": 0,
      "byteLength": 12372,
      "byteOffset": 31012,
      "target": 34962
    },
    {
      "buffer": 0,
      "byteLength": 8248,
      "byteOffset": 43384,
      "target": 34962
    },
    {
      "buffer": 0,
      "byteLength": 8670,
      "byteOffset": 51632,
      "target": 34963
    }
  ],
  "samplers": [
    {
      "magFilter": 9729,
      "minFilter": 9987
    }
  ],
  "buffers": [
    {
      "byteLength": 60304,
      "uri": "porsche_rs_wheel.bin"
    }
  ]
}
